# xmcd
#
# Track frame offsets: 
#        150
#        15170
#        32173
#        47797
#        67963
#        84430
#        100044
#        118431
#        130841
#        143586
#        165190
#        181837
#        194516
#        205482
#
# Disc length: 2945 seconds
#
# Revision: 0
# Processed by: cddbd v1.5.2PL0 Copyright (c) Steve Scherf et al.
# Submitted via: ExactAudioCopy v0.95b4
#
DISCID=b50b7f0e
DTITLE=Paul Miles - A Peace of the Blues
DYEAR=2004
DGENRE=Blues
TTITLE0=I Like the Way You Move
TTITLE1=Best Believe
TTITLE2=March for Love
TTITLE3=Funky Kat
TTITLE4=I Believe in Love
TTITLE5=Blue on Blue
TTITLE6=Red Light
TTITLE7=Shimmy Shimmy Shimmy
TTITLE8=Way down in the Morning
TTITLE9=Mother Nature (Tell me Why)
TTITLE10=Illusions
TTITLE11=Big Fat Mama
TTITLE12=Closer to You
TTITLE13=I've Been Waiting
EXTD=
EXTT0=
EXTT1=
EXTT2=
EXTT3=
EXTT4=
EXTT5=
EXTT6=
EXTT7=
EXTT8=
EXTT9=
EXTT10=
EXTT11=
EXTT12=
EXTT13=
PLAYORDER=
